# xmcd
#
# Track frame offsets: 
#        150
#        21306
#        44950
#        64656
#
# Disc length: 1141 seconds
#
# Revision: 2
# Processed by: cddbd v1.5.2PL0 Copyright (c) Steve Scherf et al.
# Submitted via: ExactAudioCopy v1.0b4
#
DISCID=37047304
DTITLE=野宮真貴♥m-flo - Big Bang Romance
DYEAR=2005
DGENRE=JPop
TTITLE0=Big Bang Romance
TTITLE1=Big Bang Romance -トンガリニポポの極悪 MIX-
TTITLE2=Big Bang Romance -P&ART SASANOOOHA mix-
TTITLE3=Big Bang Romance (instrumental)
EXTD=
EXTT0=
EXTT1=
EXTT2=
EXTT3=
PLAYORDER=
